<svg width="51" height="51" viewBox="0 0 51 51" fill="none" xmlns="http://www.w3.org/2000/svg">
<rect width="51" height="51" fill="#F6F6F6"/>
<mask id="mask0_2318_38094" style="mask-type:luminance" maskUnits="userSpaceOnUse" x="18" y="17" width="16" height="17">
<path fill-rule="evenodd" clip-rule="evenodd" d="M18 17.9998H33.116V33.3824H18V17.9998Z" fill="white"/>
</mask>
<g mask="url(#mask0_2318_38094)">
<path fill-rule="evenodd" clip-rule="evenodd" d="M26.4833 25.6914L32.8963 19.2784C33.1893 18.9864 33.1893 18.5114 32.8963 18.2194C32.6033 17.9264 32.1293 17.9264 31.8373 18.2194L25.5583 24.4984L19.2783 18.2194C18.9853 17.9264 18.5123 17.9264 18.2193 18.2194C17.9263 18.5114 17.9263 18.9864 18.2193 19.2784L24.6323 25.6914L18.2193 32.1044C17.9263 32.3964 17.9263 32.8714 18.2193 33.1634C18.3653 33.3094 18.5573 33.3824 18.7493 33.3824C18.9413 33.3824 19.1323 33.3094 19.2783 33.1634L25.5583 26.8844L31.8373 33.1634C31.9833 33.3094 32.1743 33.3824 32.3663 33.3824C32.5583 33.3824 32.7503 33.3094 32.8963 33.1634C33.1893 32.8714 33.1893 32.3964 32.8963 32.1044L26.4833 25.6914Z" fill="#8897A2"/>
</g>
</svg>
