<svg width="51" height="50" viewBox="0 0 51 50" fill="none" xmlns="http://www.w3.org/2000/svg">
<rect width="51" height="49.8182" fill="#F6F6F6"/>
<mask id="mask0_4410_45190" style="mask-type:luminance" maskUnits="userSpaceOnUse" x="18" y="17" width="16" height="16">
<path fill-rule="evenodd" clip-rule="evenodd" d="M18 17.583H33.116V32.6091H18V17.583Z" fill="white"/>
</mask>
<g mask="url(#mask0_4410_45190)">
<path fill-rule="evenodd" clip-rule="evenodd" d="M26.4838 25.0965L32.8968 18.8321C33.1898 18.5469 33.1898 18.0829 32.8968 17.7977C32.6038 17.5115 32.1298 17.5115 31.8378 17.7977L25.5588 23.9312L19.2787 17.7977C18.9857 17.5115 18.5128 17.5115 18.2198 17.7977C17.9267 18.0829 17.9267 18.5469 18.2198 18.8321L24.6328 25.0965L18.2198 31.3609C17.9267 31.6461 17.9267 32.1101 18.2198 32.3954C18.3658 32.538 18.5577 32.6093 18.7498 32.6093C18.9418 32.6093 19.1327 32.538 19.2787 32.3954L25.5588 26.2619L31.8378 32.3954C31.9838 32.538 32.1747 32.6093 32.3667 32.6093C32.5588 32.6093 32.7508 32.538 32.8968 32.3954C33.1898 32.1101 33.1898 31.6461 32.8968 31.3609L26.4838 25.0965Z" fill="#8897A2"/>
</g>
</svg>
